name rise30.6535peak61.5555fall82.9339.mot
datacolumns 19
datarows 23
range 20.46658500000000 20.50324800000000
endheader
time	ground_force1_vx	ground_force1_vy	ground_force1_vz	ground_force1_px	ground_force1_py	ground_force1_pz	ground_force2_vx	ground_force2_vy	ground_force2_vz	ground_force2_px	ground_force2_py	ground_force2_pz	ground_torque1_x	ground_torque1_y	ground_torque1_z	ground_torque2_x	ground_torque2_y	ground_torque2_z	
20.46658500000000	-7.49936300000000	41.52191200000000	-10.71163100000000	0.34949100000000	0.00000000000000	0.08768500000000	-40.79893500000000	800.78394300000002	-50.29044600000000	0.14807900000000	0.00000000000000	-0.08866300000000	0.00000000000000	-7.45628600000000	0.00000000000000	0.00000000000000	-20.23281900000000	0.00000000000000	
20.46825200000000	-8.15853700000000	48.43113100000000	-12.01849700000000	0.35447000000000	0.00000000000000	0.08838200000000	-41.55450500000000	798.80059700000004	-49.94672000000000	0.14726500000000	0.00000000000000	-0.08856400000000	0.00000000000000	-8.46147800000000	0.00000000000000	0.00000000000000	-20.18437700000000	0.00000000000000	
20.46991700000000	-8.65880500000000	55.36664400000000	-13.19764500000000	0.35905200000000	0.00000000000000	0.08903500000000	-42.34032300000000	796.72992499999998	-49.59028000000000	0.14645200000000	0.00000000000000	-0.08846300000000	0.00000000000000	-9.39569700000000	0.00000000000000	0.00000000000000	-20.14096700000000	0.00000000000000	
20.47159700000000	-8.97996600000000	62.23471000000000	-14.22122900000000	0.36328900000000	0.00000000000000	0.08965000000000	-43.15586500000000	794.56901200000004	-49.22103800000000	0.14564100000000	0.00000000000000	-0.08835900000000	0.00000000000000	-10.23743100000000	0.00000000000000	0.00000000000000	-20.10254500000000	0.00000000000000	
20.47324700000000	-9.11069400000000	68.96614400000000	-15.07120600000000	0.36722300000000	0.00000000000000	0.09023200000000	-44.00048000000000	792.31481799999995	-48.83890700000000	0.14483100000000	0.00000000000000	-0.08825300000000	0.00000000000000	-10.97176200000000	0.00000000000000	0.00000000000000	-20.06904000000000	0.00000000000000	
20.47491400000000	-9.04832500000000	75.51824499999999	-15.73941600000000	0.37088900000000	0.00000000000000	0.09078500000000	-44.87339100000000	789.96419200000003	-48.44379400000000	0.14402300000000	0.00000000000000	-0.08814500000000	0.00000000000000	-11.59062000000000	0.00000000000000	0.00000000000000	-20.04035400000000	0.00000000000000	
20.47659400000000	-8.79798300000000	81.87421399999999	-16.22684000000000	0.37431500000000	0.00000000000000	0.09131200000000	-45.77369600000000	787.51387999999997	-48.03560600000000	0.14321700000000	0.00000000000000	-0.08803500000000	0.00000000000000	-12.09243000000000	0.00000000000000	0.00000000000000	-20.01636500000000	0.00000000000000	
20.47824800000000	-8.37121100000000	88.04053800000000	-16.54222700000000	0.37752800000000	0.00000000000000	0.09181600000000	-46.70036300000000	784.96052699999996	-47.61424800000000	0.14241300000000	0.00000000000000	-0.08792300000000	0.00000000000000	-12.48128100000000	0.00000000000000	0.00000000000000	-19.99692100000000	0.00000000000000	
20.47991400000000	-7.78431300000000	94.04290800000000	-16.70033200000000	0.38054700000000	0.00000000000000	0.09230000000000	-47.65223600000000	782.30069700000001	-47.17963000000000	0.14161100000000	0.00000000000000	-0.08780900000000	0.00000000000000	-12.76577900000000	0.00000000000000	0.00000000000000	-19.98184700000000	0.00000000000000	
20.48159500000000	-7.05659100000000	99.92125200000000	-16.71995300000000	0.38339100000000	0.00000000000000	0.09276600000000	-48.62803300000000	779.53087400000004	-46.73166300000000	0.14081300000000	0.00000000000000	-0.08769300000000	0.00000000000000	-12.95771000000000	0.00000000000000	0.00000000000000	-19.97093900000000	0.00000000000000	
20.48324800000000	-6.20864400000000	105.72446500000000	-16.62198500000000	0.38607500000000	0.00000000000000	0.09321500000000	-49.62634400000000	776.64747899999998	-46.27026600000000	0.14001700000000	0.00000000000000	-0.08757500000000	0.00000000000000	-13.07068400000000	0.00000000000000	0.00000000000000	-19.96397200000000	0.00000000000000	
20.48491600000000	-5.26084800000000	111.50530999999999	-16.42763900000000	0.38861200000000	0.00000000000000	0.09364800000000	-50.64563800000000	773.64687900000001	-45.79536200000000	0.13922400000000	0.00000000000000	-0.08745600000000	0.00000000000000	-13.11885400000000	0.00000000000000	0.00000000000000	-19.96069300000000	0.00000000000000	
20.48658300000000	-4.23212100000000	117.31585900000000	-16.15693100000000	0.39101400000000	0.00000000000000	0.09406800000000	-51.68426200000000	770.52539800000000	-45.30688700000000	0.13843500000000	0.00000000000000	-0.08733400000000	0.00000000000000	-13.11581200000000	0.00000000000000	0.00000000000000	-19.96082700000000	0.00000000000000	
20.48825500000000	-3.13900100000000	123.20375799999999	-15.82753200000000	0.39329200000000	0.00000000000000	0.09447500000000	-52.74044400000000	767.27933199999995	-44.80478500000000	0.13764900000000	0.00000000000000	-0.08721000000000	0.00000000000000	-13.07371900000000	0.00000000000000	0.00000000000000	-19.96407500000000	0.00000000000000	
20.48991800000000	-1.99507500000000	129.20943600000001	-15.45398600000000	0.39545300000000	0.00000000000000	0.09487100000000	-53.81229400000000	763.90496099999996	-44.28901600000000	0.13686700000000	0.00000000000000	-0.08708500000000	0.00000000000000	-13.00269000000000	0.00000000000000	0.00000000000000	-19.97011500000000	0.00000000000000	
20.49158600000000	-0.81072400000000	135.36433000000000	-15.04730300000000	0.39750500000000	0.00000000000000	0.09525500000000	-54.89781000000000	760.39855999999997	-43.75955400000000	0.13609000000000	0.00000000000000	-0.08695800000000	0.00000000000000	-12.91044700000000	0.00000000000000	0.00000000000000	-19.97860500000000	0.00000000000000	
20.49325500000000	0.40684500000000	141.69005799999999	-14.61488800000000	0.39945600000000	0.00000000000000	0.09562900000000	-55.99488200000000	756.75641700000006	-43.21638900000000	0.13531600000000	0.00000000000000	-0.08682900000000	0.00000000000000	-12.80221100000000	0.00000000000000	0.00000000000000	-19.98918000000000	0.00000000000000	
20.49491500000000	1.65333300000000	148.19843900000001	-14.16075000000000	0.40131100000000	0.00000000000000	0.09599300000000	-57.10129300000000	752.97484499999996	-42.65953300000000	0.13454800000000	0.00000000000000	-0.08669800000000	0.00000000000000	-12.68080400000000	0.00000000000000	0.00000000000000	-20.00145900000000	0.00000000000000	
20.49658200000000	2.92692300000000	154.89220499999999	-13.68592200000000	0.40307600000000	0.00000000000000	0.09634900000000	-58.21472600000000	749.05019600000003	-42.08901900000000	0.13378400000000	0.00000000000000	-0.08656500000000	0.00000000000000	-12.54691200000000	0.00000000000000	0.00000000000000	-20.01503900000000	0.00000000000000	
20.49825500000000	4.22773500000000	161.76622200000000	-13.18902800000000	0.40475500000000	0.00000000000000	0.09669500000000	-59.33277100000000	744.97888000000000	-41.50490000000000	0.13302500000000	0.00000000000000	-0.08643100000000	0.00000000000000	-12.39946200000000	0.00000000000000	0.00000000000000	-20.02950300000000	0.00000000000000	
20.49992100000000	5.55724900000000	168.80903200000000	-12.66692300000000	0.40635200000000	0.00000000000000	0.09703300000000	-60.45292600000000	740.75737800000002	-40.90725700000000	0.13227200000000	0.00000000000000	-0.08629500000000	0.00000000000000	-12.23606300000000	0.00000000000000	0.00000000000000	-20.04441700000000	0.00000000000000	
20.50158100000000	6.91772400000000	176.00455099999999	-12.11534600000000	0.40787100000000	0.00000000000000	0.09736400000000	-61.57260900000000	736.38225899999998	-40.29619800000000	0.13152400000000	0.00000000000000	-0.08615800000000	0.00000000000000	-12.05346600000000	0.00000000000000	0.00000000000000	-20.05933200000000	0.00000000000000	
20.50324800000000	8.31167000000000	183.33375500000000	-11.52953400000000	0.40931600000000	0.00000000000000	0.09768700000000	-62.68915800000000	731.85019999999997	-39.67185600000000	0.13078200000000	0.00000000000000	-0.08601800000000	0.00000000000000	-11.84800700000000	0.00000000000000	0.00000000000000	-20.07378700000000	0.00000000000000	
